# xmcd
#
# Track frame offsets:
#	150
#	15679
#	32449
#	52367
#	69617
#	85527
#	104221
#	121487
#	135327
#	155222
#	173683
#
# Disc length: 2553 seconds
#
# Revision: 6
# Processed by: cddbd v1.5.2PL0 Copyright (c) Steve Scherf et al.
# Submitted via: EasyCDDAExtractor 15.3.0.1
#
DISCID=9509f70b
DTITLE=Melina Leon
DYEAR=2004
DGENRE=Latin
TTITLE0=Quiero Ser Tuya
TTITLE1=Demasiado
TTITLE2=Cuando Nos Quema El Deseo
TTITLE3=Si Tu Te Vas
TTITLE4=Yo Se Que Nadie
TTITLE5=Encadenada
TTITLE6=Mucho Mas Mujer
TTITLE7=Que Has Hecho
TTITLE8=Hay Otra Mas
TTITLE9=Quiero Ser Tuya (Version Salsa)
TTITLE10=Entre La Espada Y La Pared
EXTD=
EXTT0=
EXTT1=
EXTT2=
EXTT3=
EXTT4=
EXTT5=
EXTT6=
EXTT7=
EXTT8=
EXTT9=
EXTT10=
PLAYORDER=
